<svg xmlns="http://www.w3.org/2000/svg" width="500" height="500" viewBox="0 0 500 500"><defs><style>.a{fill:#1d4893;}.b{fill:#fff;}</style></defs><title>アートボード 1</title><rect class="a" width="500" height="500"/><ellipse class="b" cx="198.8" cy="246" rx="61.9" ry="53.9" transform="translate(-39.3 37.8) rotate(-9.9)"/><ellipse class="b" cx="116.8" cy="201.4" rx="23.6" ry="23.4" transform="translate(-115.1 222.5) rotate(-65.1)"/><ellipse class="b" cx="171.6" cy="158.7" rx="23.6" ry="25" transform="translate(-47.7 77.8) rotate(-22.5)"/><ellipse class="b" cx="245.9" cy="166.7" rx="24.2" ry="23.6" transform="translate(-37.4 255.9) rotate(-51.6)"/><ellipse class="b" cx="319" cy="313.6" rx="44.3" ry="50.9" transform="translate(-126.4 354.8) rotate(-49.8)"/><ellipse class="b" cx="306.6" cy="241.3" rx="19.4" ry="18.5" transform="translate(-52 87.6) rotate(-15)"/><ellipse class="b" cx="359.6" cy="251.2" rx="19.9" ry="19.4" transform="translate(-29.6 453.5) rotate(-62.4)"/><ellipse class="b" cx="391.2" cy="299" rx="19.7" ry="19.4" transform="matrix(1, -0.03, 0.03, 1, -7.69, 10.34)"/></svg>